<?xml version="1.0" encoding="UTF-8" standalone="no"?>
<!-- Created with Inkscape (http://www.inkscape.org/) -->

<svg
   version="1.1"
   id="svg1"
   width="246"
   height="210"
   viewBox="0 0 246 210"
   sodipodi:docname="icon.svg"
   inkscape:version="1.4 (86a8ad7, 2024-10-11)"
   xmlns:inkscape="http://www.inkscape.org/namespaces/inkscape"
   xmlns:sodipodi="http://sodipodi.sourceforge.net/DTD/sodipodi-0.dtd"
   xmlns="http://www.w3.org/2000/svg"
   xmlns:svg="http://www.w3.org/2000/svg">
  <defs
     id="defs1" />
  <sodipodi:namedview
     id="namedview1"
     pagecolor="#ffffff"
     bordercolor="#000000"
     borderopacity="0.25"
     inkscape:showpageshadow="2"
     inkscape:pageopacity="0.0"
     inkscape:pagecheckerboard="0"
     inkscape:deskcolor="#d1d1d1"
     showgrid="false"
     inkscape:zoom="2.8928571"
     inkscape:cx="93.851852"
     inkscape:cy="83.135802"
     inkscape:window-width="2227"
     inkscape:window-height="1335"
     inkscape:window-x="1282"
     inkscape:window-y="1123"
     inkscape:window-maximized="0"
     inkscape:current-layer="g1" />
  <g
     inkscape:groupmode="layer"
     inkscape:label="Image"
     id="g1">
    <g
       id="g4"
       transform="matrix(1.0888719,0,0,1.1737536,-7.1996975,-24.166901)">
      <path
         style="fill:#f86300"
         d="M 61.861465,166.0535 C 56.069816,162.20648 42,149.30966 42,147.84787 c 0,-0.49383 1.359364,-1.16974 3.020809,-1.50203 3.456776,-0.69136 4.990787,-2.31112 2.288208,-2.41613 -1.604845,-0.0624 -1.58329,-0.15981 0.190983,-0.8635 1.130763,-0.44848 2.270692,-0.37306 2.622826,0.17353 0.395776,0.61432 1.342438,0.58163 2.596804,-0.0897 C 55.622356,141.59656 57,143.54375 57,149.2 V 154 H 66.5 76 V 139.5 125 h 13.5 c 10.158266,0 13.48843,-0.30942 13.45325,-1.25 -0.0257,-0.6875 -1.51379,-4.85 -3.306836,-9.25 l -3.260088,-8 -19.75911,-0.27136 -19.75911,-0.27136 0.137611,14.27136 C 57.18465,138.78536 57.258041,138 55.345012,138 c -1.486635,0 -1.470304,-0.20407 0.160536,-2.00613 0.998538,-1.10337 1.624247,-2.19741 1.390464,-2.43119 -0.233782,-0.23378 -3.568524,0.84233 -7.410536,2.39135 -3.842012,1.54903 -7.162101,2.65394 -7.377977,2.45536 -1.043042,-0.95948 2.576212,-3.47592 7.219462,-5.01962 2.845172,-0.94591 4.603417,-1.91045 3.907212,-2.14341 -0.696206,-0.23297 -3.283706,0.26398 -5.75,1.10433 C 43.513644,133.70359 43,133.70698 43,132.38029 c 0,-0.83486 -0.486986,-1.19735 -1.099768,-0.81863 -0.767196,0.47415 -0.754178,0.034 0.04305,-1.45568 0.62855,-1.17446 2.585946,-2.76705 4.349768,-3.5391 1.923549,-0.84197 2.514236,-1.43638 1.476002,-1.48531 -0.974834,-0.0459 -2.005035,-1.17362 -2.358408,-2.58157 -0.345103,-1.375 -0.984655,-2.5 -1.421227,-2.5 -0.436572,0 -1.293178,-1.43261 -1.903569,-3.18358 -1.075632,-3.08556 -0.325241,-4.75028 2.164152,-4.80111 0.4125,-0.008 0.75,-0.69031 0.75,-1.51531 0,-0.83333 0.888889,-1.5 2,-1.5 1.20802,0 2.031262,-0.69298 2.078947,-1.75 0.04342,-0.9625 0.297495,-1.21278 0.564608,-0.55618 0.267113,0.65661 1.129002,0.94695 1.915309,0.64522 0.786307,-0.30174 1.19252,-0.93229 0.902696,-1.40124 -0.289824,-0.46894 0.950261,-1.60958 2.755744,-2.53474 1.805483,-0.92517 3.507696,-1.97994 3.782696,-2.34393 0.275,-0.364 2.66484,-1.473867 5.310756,-2.466381 5.912473,-2.217837 5.662725,-3.200316 -0.280493,-1.103426 -2.354944,0.830872 -5.012639,1.475151 -5.90599,1.43173 C 57.230923,98.877632 57.7375,98.390132 59.25,97.837719 60.7625,97.285307 62,96.372688 62,95.809678 c 0,-0.566156 -0.782123,-0.721077 -1.75,-0.346636 -0.9625,0.372361 -3.1,0.942765 -4.75,1.267565 -4.89743,0.964052 -7.5,3.172888 -7.5,6.365353 0,2.30142 -0.541681,2.99463 -2.75,3.5193 -1.5125,0.35935 -3.469772,1.27637 -4.349493,2.03783 -1.363648,1.18033 -2.00549,1.17384 -4.35294,-0.044 -2.62354,-1.36111 -2.660434,-1.47829 -0.78199,-2.4836 1.084302,-0.5803 2.19891,-0.82764 2.476909,-0.54964 C 38.787078,106.12041 46,102.13808 46,101.29282 c 0,-0.2803 -1.125,-0.22728 -2.5,0.11782 -1.772815,0.44495 -2.5,0.22123 -2.5,-0.76914 0,-2.060998 2.081149,-3.446094 8.108846,-5.396797 4.63244,-1.499165 8.714805,-1.702418 29.007831,-1.444243 l 23.616673,0.300459 12.14607,27.699541 c 6.68034,15.23475 12.14034,28.20862 12.13333,28.83083 -0.007,0.6222 -2.15025,1.65562 -4.76275,2.29648 -14.83802,3.63985 -24.099125,7.2052 -27.348777,10.52877 -3.535955,3.61639 -5.045665,3.81181 -4.190712,0.54246 0.292181,-1.1173 0.03024,-1.999 -0.59388,-1.999 -2.146094,0 -1.095054,-1.96731 1.383369,-2.58936 1.375,-0.3451 2.5,-1.02867 2.5,-1.51905 0,-1.47517 -4.145105,-0.90399 -10.5,1.44686 -4.384662,1.622 -5.924226,2.66838 -5.718546,3.88663 0.191999,1.13723 -1.284137,2.41634 -4.644386,4.0245 l -4.925841,2.35742 z m 73.331795,-26.18732 4.91097,-10.78313 -10.43717,-23.79153 C 123.92661,92.206186 118.65593,80.2625 117.95443,78.75 116.74739,76.147522 116.29866,75.993777 109.58948,75.883999 105.69027,75.820198 103.4,75.54544 104.5,75.273425 c 6.75432,-1.67025 28.48402,-8.146909 43.28624,-12.901705 13.64698,-4.383706 17.61863,-6.059989 18.86501,-7.962219 C 168.43559,51.686267 170,51.261381 170,53.5 c 0,1.80275 0.21067,1.816772 5.13398,0.341712 2.63779,-0.7903 3.86602,-1.733427 3.86602,-2.968615 0,-1.254218 -0.53758,-1.651664 -1.75,-1.293823 -1.57015,0.463423 -1.56146,0.383119 0.0846,-0.781385 1.009,-0.713839 2.76865,-2.088243 3.91032,-3.054232 1.14167,-0.965989 2.28267,-1.54944 2.53555,-1.296558 0.37026,0.370262 -11.36489,28.273935 -22.04344,52.414573 l -2.00785,4.539078 -5.87,-12.361612 c -3.2285,-6.798887 -6.04533,-12.176556 -6.25961,-11.950376 -1.29926,1.371354 -10.59595,23.642488 -10.57933,25.343788 0.0111,1.1371 3.78842,10.48905 8.39401,20.78212 4.60559,10.29306 8.08399,18.65675 7.72979,18.58596 -1.38058,-0.27591 -6.72099,1.53434 -8.144,2.76059 -0.825,0.71093 -4.47399,2.37158 -8.10886,3.69034 l -6.60886,2.39775 z M 53,140.60699 c 0,-0.21616 0.698372,-0.661 1.551938,-0.98855 0.889925,-0.34149 1.291322,-0.17385 0.940983,0.39301 C 54.905663,140.96166 53,141.4169 53,140.60699 Z m 114,-1.85244 c 0,-0.19991 9.19958,-21.71397 20.4435,-47.809015 L 207.88701,43.5 l 4.05002,-0.307182 c 3.87885,-0.294198 4.04264,-0.188529 3.87513,2.5 -0.0962,1.54395 -0.5632,3.327292 -1.03779,3.962981 -0.4746,0.635689 -1.09451,3.077351 -1.3776,5.425913 -0.28308,2.348563 -0.94114,5.066929 -1.46234,6.040812 -0.69812,1.304448 -0.51397,2.013396 0.69936,2.692409 C 214.47501,64.845331 213.66808,67 211.44098,67 210.64844,67 210,67.498145 210,68.106989 c 0,0.631239 0.7521,0.832138 1.75,0.467457 0.9625,-0.351743 0.4,0.483929 -1.25,1.857048 -3.30033,2.746512 -2.09241,3.273785 3.15387,1.376706 1.81272,-0.65549 3.5963,-0.891365 3.9635,-0.524166 0.91982,0.919819 -1.35254,3.47542 -4.42165,4.972808 -1.40142,0.683737 -2.73126,1.805658 -2.95521,2.493158 -0.57543,1.766539 2.37002,1.551295 5.3323,-0.389667 2.35011,-1.53985 2.58995,-1.52463 3.93974,0.25 1.28963,1.695528 1.18303,2.115898 -1.03763,4.091701 C 217.11372,83.913153 216,85.600653 216,86.452034 216,87.303415 215.52344,88 214.94098,88 c -0.58246,0 -0.81057,0.401997 -0.50691,0.893326 0.30366,0.49133 -0.56978,1.174903 -1.94098,1.519053 -3.00876,0.75515 -3.23506,2.217354 -0.47857,3.09223 1.10799,0.351661 1.75643,1.056985 1.44098,1.567387 -0.89368,1.446018 0.063,1.174197 9.24598,-2.62712 5.67258,-2.34817 8.92466,-3.218738 9.57911,-2.564286 1.66002,1.66002 -1.42822,3.768258 -10.81605,7.383745 -6.44748,2.483085 -8.31909,3.577505 -6.99016,4.087455 1.10488,0.42399 2.50185,0.0747 3.57096,-0.89282 1.31522,-1.190264 1.94266,-1.287396 2.4992,-0.3869 0.99188,1.60489 -3.61746,5.1123 -5.10071,3.88131 -0.67077,-0.55669 -1.60128,-0.4332 -2.41433,0.32041 -1.04674,0.97022 -1.17558,0.96526 -0.61719,-0.0238 1.1261,-1.99458 -1.16992,-1.44753 -3.9047,0.93034 C 206.21044,107.1777 205.1121,110 206.63197,110 c 0.34758,0 2.17125,-0.95133 4.0526,-2.11407 1.88134,-1.16273 3.67867,-1.85602 3.99406,-1.54063 0.31539,0.31539 -1.05761,1.53577 -3.05111,2.71196 -1.9935,1.1762 -3.42429,2.46255 -3.17954,2.85856 0.24475,0.39602 -2.05952,1.94836 -5.1206,3.44966 -6.20219,3.04183 -6.69367,4.61767 -0.68547,2.19778 2.73471,-1.10144 3.35306,-1.1625 2.12363,-0.2097 -0.95395,0.73931 -1.41698,1.66167 -1.02896,2.04969 0.38803,0.38802 0.0475,1.11218 -0.7568,1.60925 -0.80426,0.49706 -1.51019,1.48509 -1.56872,2.19562 -0.27357,3.32072 -0.50713,3.79188 -1.87968,3.79188 -0.89871,0 -1.24383,-0.58578 -0.88935,-1.50952 0.41585,-1.0837 -0.93294,-0.73788 -4.78139,1.22592 -2.94835,1.50449 -5.64783,3.14143 -5.99884,3.63764 -0.351,0.4962 -1.04496,0.65079 -1.54213,0.34353 -0.49716,-0.30726 -3.42522,0.73234 -6.50679,2.31023 -3.08157,1.57789 -5.87236,2.59939 -6.20174,2.27001 -0.32938,-0.32939 -1.38914,0.0799 -2.35501,0.90955 C 169.21122,137.94384 167,139.27759 167,138.75455 Z M 192,129 c 0.825,-0.53316 1.95,-0.96937 2.5,-0.96937 0.55,0 0.325,0.43621 -0.5,0.96937 -0.825,0.53316 -1.95,0.96937 -2.5,0.96937 -0.55,0 -0.325,-0.43621 0.5,-0.96937 z m 17.08333,-14.37282 C 210.11238,113.70641 216,111.00077 216,111.44864 216,112.02462 210.45618,115 209.38299,115 c -0.39398,0 -0.52882,-0.16777 -0.29966,-0.37282 z M 52,100 c 0.825,-0.533156 2.175,-0.944637 3,-0.914402 0.989055,0.03625 0.81874,0.34772 -0.5,0.914402 -2.749085,1.18132 -4.327966,1.18132 -2.5,0 z"
         id="path5" />
      <path
         style="fill:#1e1d1c"
         d="M 105.80426,197.45509 C 91.053797,194.16314 75.771903,188.05911 62.600871,180.19842 47.595104,171.24272 41.040428,165.16516 32.019374,151.84294 25.381155,142.03968 22.14191,138 20.919306,138 c -1.144508,0 0.06095,3.85585 3.717554,11.89119 2.743383,6.02855 5.068774,9.07997 12.613307,16.55139 12.162642,12.04478 26.216616,20.95209 41.749833,26.46078 3.241422,1.14953 4.585411,1.98051 3.272829,2.02357 -2.847576,0.0934 -13.493895,-3.90981 -22.087986,-8.30553 -3.676664,-1.88054 -9.320227,-4.62551 -12.541251,-6.09992 -11.819636,-5.4104 -28.31801,-24.12115 -34.7011,-39.35441 C 3.9485064,119.70291 5.4671371,92.797411 16.721191,74.22006 30.212015,51.950417 58.48496,33.333326 92,24.650677 c 9.26638,-2.400617 25.1772,-3.806807 26.63043,-2.353583 0.39961,0.399608 2.33374,0.436541 4.29806,0.08207 1.96433,-0.354468 3.23747,-0.288255 2.82921,0.14714 -0.40827,0.435395 -6.92277,1.609364 -14.47667,2.608819 -17.117366,2.264795 -23.246799,3.551925 -25.708029,5.398471 -3.328364,2.497117 -1.144947,2.599778 8.542622,0.401662 11.623767,-2.63744 43.203357,-4.26368 55.550757,-2.860673 8.24255,0.936584 15.6031,3.216263 22.33362,6.917085 4.98387,2.740413 2.39171,2.451139 -5.63094,-0.628389 -5.38023,-2.065224 -8.76089,-2.66127 -15.59749,-2.75 -5.0699,-0.0658 -8.84225,0.305868 -9,0.886718 -0.14936,0.55 3.48976,1.533503 8.08695,2.185561 9.60699,1.362643 20.7272,4.531606 23.64148,6.737191 1.83443,1.388331 1.85076,1.516274 0.19736,1.545445 -0.99145,0.01749 -9.99145,-1.648065 -20,-3.701237 -16.70041,-3.425952 -19.51355,-3.728402 -34.19736,-3.676658 -12.3814,0.04363 -18.13733,0.52869 -25.45043,2.144746 -8.707427,1.924175 -9.750114,1.968456 -13.26216,0.563214 -3.722058,-1.489273 -4.017288,-1.437171 -12.54957,2.214751 -12.914828,5.527706 -20.909291,9.737057 -19.445679,10.238797 0.710689,0.24363 4.444494,-0.329555 8.297345,-1.273745 3.852851,-0.94419 7.252486,-1.469406 7.554744,-1.167148 0.302259,0.302258 -1.406547,1.544292 -3.797345,2.760076 C 45.62224,58.813135 32.250313,71.518809 26.191187,84 c -2.269528,4.675 -4.390304,10.3 -4.712836,12.5 -0.478125,3.26131 0.46613,1.893869 5.113134,-7.404687 C 31.092472,80.088935 33.679906,76.286418 38.89552,71.013193 50.206717,59.577052 65.753689,49.801099 80,45.166651 c 8.42471,-2.740631 22.88122,-5.207782 29.38099,-5.014164 l 5.11901,0.152487 -6,0.744324 c -12.818461,1.590181 -29.282912,5.77898 -35.816809,9.112326 -4.973922,2.537506 -4.245818,3.300985 1.286546,1.349053 8.082822,-2.851785 6.338197,-1.501575 -6.056656,4.6874 -11.168351,5.576561 -13.318293,7.105765 -21.440315,15.25 -11.187257,11.217852 -15.708295,19.660782 -17.624382,32.913103 -1.702347,11.77402 -0.343283,19.31867 5.65807,31.41 7.289094,14.68582 19.591322,26.61321 37.003359,35.87589 23.083538,12.27975 48.308167,16.08541 75.642947,11.41229 30.63551,-5.2374 49.8005,-17.00312 69.32424,-42.55936 l 1.52791,-2 -0.66529,2 c -1.29528,3.89393 -7.6374,12.61625 -14.57488,20.04484 -3.86533,4.13895 -6.79656,7.75667 -6.51386,8.03937 0.69853,0.69853 8.98441,-6.52545 16.02759,-13.97354 3.17816,-3.36087 7.10311,-7.49569 8.7221,-9.18849 1.619,-1.69281 4.27482,-6.34894 5.90182,-10.34697 3.23495,-7.94918 3.74437,-8.76179 4.81903,-7.68712 1.17137,1.17136 -3.64211,13.68188 -7.45207,19.3684 -5.11411,7.633 -19.69507,20.99958 -28.94645,26.53563 -17.01895,10.18419 -36.47903,16.42514 -58.3229,18.70446 -6.325,0.65999 -12.85,1.59198 -14.5,2.07109 -4.71009,1.36768 23.77073,0.008 33.59367,-1.60353 9.94036,-1.63099 24.10878,-6.35208 31.62046,-10.53632 3.50018,-1.94971 5.02639,-2.41521 4.64301,-1.41612 -0.31412,0.81856 -0.24262,1.4883 0.15888,1.4883 1.22232,0 12.81941,-8.60533 15.48398,-11.4895 1.375,-1.48832 3.79459,-3.63333 5.37686,-4.76669 l 2.87685,-2.06066 -1.57919,2.40843 c -0.86855,1.32463 -3.63402,4.12533 -6.14548,6.22377 -2.51147,2.09844 -4.35598,4.15565 -4.09891,4.57159 0.72478,1.17272 -11.61418,8.89002 -19.24543,12.0369 -7.3846,3.04516 -16.69075,5.55 -24.6847,6.64411 -2.75,0.37639 -5.62136,1.18152 -6.3808,1.7892 -2.2871,1.83003 -40.2094,1.90691 -48.31494,0.0979 z m -48.638414,-67.47623 -0.167589,-24.02115 19.694035,0.27115 19.694034,0.27114 3.260088,8 c 1.793046,4.4 3.281126,8.5625 3.306836,9.25 C 102.98843,124.69058 99.658266,125 89.5,125 H 76 V 139.5 154 H 66.666718 57.333436 Z M 126.24001,149.75 c -1.08913,-2.3375 -7.05795,-15.8375 -13.26405,-30 L 101.69215,94 H 79.239088 C 59.175671,94 56.850623,93.831653 57.393011,92.418213 57.726855,91.548229 58,87.498229 58,83.418213 V 76 h 29.339485 29.339485 l 1.27546,2.75 c 0.7015,1.5125 5.97345,13.459088 11.71545,26.54797 l 10.44,23.79798 -5.69087,12.45202 C 131.28903,148.39659 128.61386,154 128.47419,154 c -0.13966,0 -1.14504,-1.9125 -2.23418,-4.25 z m 22.33581,-19.45056 C 142.67691,117.20975 137.63099,105.15 137.36268,103.5 c -0.35501,-2.18312 0.91924,-6.13136 4.67969,-14.5 2.84215,-6.325 5.34287,-11.685057 5.55716,-11.911238 0.21428,-0.22618 3.03111,5.151489 6.25961,11.950376 l 5.87,12.361612 2.191,-4.950374 C 163.1252,93.727669 169.11065,79.9125 175.22116,65.75 l 11.11,-25.75 h 11.33442 C 203.89951,40 209,40.209502 209,40.465561 c 0,1.26159 -47.92016,111.648069 -48.98261,112.833879 -0.39395,0.43969 -5.54265,-9.91031 -11.44157,-23 z"
         id="path4" />
    </g>
  </g>
</svg>
